# xmcd CD database file
#
# Track frame offsets:
#	150
#	19603
#	37805
#	58186
#	74630
#	93017
#	111659
#	132644
#	151442
#	168997
#	189871
#	211320
#	226603
#	244444
#	266392
#	284856
#	304830
#
# Disc length: 4352 seconds
#
# Revision: 0
# Processed by: cddbd v1.5.2PL0 Copyright (c) Steve Scherf et al.
# Submitted via: CDex 1.51
#
DISCID=f510fe11
DTITLE=Chinese Female Artist - Unknown
DYEAR=2010
DGENRE=Jazz
TTITLE0=Accompanies
TTITLE1=Insisting
TTITLE2=Beautiful Time
TTITLE3=Looks For Individual
TTITLE4=Warm
TTITLE5=The microcheiria pulls the dexterituy
TTITLE6=It Is Not I Does Not Undertand
TTITLE7=Cherishes One's Relatives
TTITLE8=Thin
TTITLE9=Bids Goodbye Joyfully
TTITLE10=Wat A Pity Is Not You
TTITLE11=Ningxia
TTITLE12=Courage
TTITLE13=I Like
TTITLE14=Dovetail Butterfly
TTITLE15=Fly Away
TTITLE16=Loves You Are Not 2-3 Days
EXTD=YEAR: 2010
EXTT0=
EXTT1=
EXTT2=
EXTT3=
EXTT4=
EXTT5=
EXTT6=
EXTT7=
EXTT8=
EXTT9=
EXTT10=
EXTT11=
EXTT12=
EXTT13=
EXTT14=
EXTT15=
EXTT16=
PLAYORDER=
